<svg width="180" height="180" viewBox="0 0 180 180" fill="none" xmlns="http://www.w3.org/2000/svg">
<rect width="180" height="180" rx="10" fill="white"/>
<path fill-rule="evenodd" clip-rule="evenodd" d="M66.2175 108.571C65.0775 108.638 64.44 108.801 64.2 108.905C61.8225 109.98 54.0188 112.78 48.75 114.646V140.975C51.45 140.852 54.4875 140.749 56.1937 140.815C63.7763 141.116 69.5025 142.862 74.8538 144.542L75.3263 144.69C80.4938 146.315 85.3163 147.831 91.6575 148.306C93.6038 148.454 95.3025 148.621 96.8925 148.781C98.7819 148.988 100.676 149.147 102.574 149.259C105.799 149.422 108.274 149.248 110.276 148.521C112.751 147.624 121.676 143.496 130.639 138.998C134.776 136.939 138.867 134.788 142.909 132.549C144.39 131.73 145.846 130.87 147.278 129.968C148.504 129.179 149.096 128.708 149.257 128.544C149.925 127.866 150.401 125.993 149.528 124.306C148.92 123.13 147.225 121.41 142.463 122.188C136.95 123.089 130.395 125.748 123.956 128.359C120.833 129.627 117.724 130.884 114.975 131.793C112.335 132.664 109.5 133.402 107.07 133.258C103.545 133.046 97.335 132.127 92.1825 131.296C89.2262 130.819 86.2736 130.32 83.325 129.798L82.7513 129.698L82.5525 129.661L83.2688 122.303L103.369 122.544C103.388 122.544 103.414 122.544 103.451 122.537C103.586 122.526 103.856 122.492 104.246 122.392C105.011 122.196 106.271 121.736 107.831 120.631C108.371 120.249 109.031 119.585 109.628 118.725C110.115 118.02 110.479 117.312 110.693 116.711C107.956 116.603 105.234 116.25 102.563 115.654C101.274 115.375 99.9955 115.051 98.73 114.683L98.5575 114.631L73.935 109.168H73.9275C73.5362 109.1 73.1436 109.038 72.75 108.983C71.7315 108.835 70.7085 108.72 69.6825 108.638C68.529 108.541 67.3702 108.519 66.2138 108.571M74.6775 105.53L75.3638 101.889L75.4313 101.9L100.511 107.463L100.665 107.514L100.71 107.529L100.883 107.581L101.588 107.781C102.206 107.952 103.099 108.178 104.16 108.408C106.313 108.875 109.028 109.306 111.563 109.306C113.903 109.306 116.321 110.17 117.615 112.513C118.725 114.523 118.466 116.733 118.05 118.261C117.533 120.167 116.46 122.17 115.099 123.872C117.112 123.107 119.115 122.316 121.106 121.499L121.568 121.313C127.654 118.84 134.869 115.91 141.233 114.872C148.508 113.681 153.799 116.292 156.199 120.924C158.336 125.047 157.841 130.458 154.624 133.718C153.818 134.537 152.588 135.397 151.354 136.187C149.799 137.171 148.216 138.111 146.606 139.006C142.464 141.3 138.27 143.503 134.029 145.614C125.138 150.075 115.815 154.414 112.853 155.485C109.418 156.728 105.728 156.846 102.184 156.665C100.045 156.533 97.9094 156.354 95.7788 156.127C94.2179 155.967 92.6553 155.825 91.0913 155.701C83.8613 155.159 78.3113 153.412 73.2038 151.807L72.5813 151.61C67.305 149.953 62.3963 148.484 55.89 148.225C53.6775 148.139 48.1763 148.421 45.2138 148.592L41.25 148.822V109.413L43.7438 108.538C48.825 106.751 58.6763 103.246 61.0875 102.16C62.595 101.481 64.3388 101.251 65.7825 101.166C67.2764 101.094 68.7734 101.12 70.2638 101.244C71.9313 101.375 73.5919 101.583 75.24 101.867L75.33 101.881L75.3525 101.885H75.3675L74.6775 105.53Z" fill="#00CC83"/>
<path fill-rule="evenodd" clip-rule="evenodd" d="M22.5 108.542C22.5 106.575 23.2902 104.688 24.6967 103.297C26.1032 101.906 28.0109 101.125 30 101.125H41.25C43.2391 101.125 45.1468 101.906 46.5533 103.297C47.9598 104.688 48.75 106.575 48.75 108.542V149.319C48.75 151.286 47.9598 153.172 46.5533 154.563C45.1468 155.954 43.2391 156.735 41.25 156.735H30C28.0109 156.735 26.1032 155.954 24.6967 154.563C23.2902 153.172 22.5 151.286 22.5 149.319V108.542ZM30 108.542V149.319H41.25V108.545L30 108.542ZM72.3712 71.7514L72.4463 71.6772C72.8978 71.2282 73.1505 70.6203 73.1487 69.9871C73.1469 69.3539 72.8909 68.7473 72.4369 68.3008C71.9829 67.8542 71.3681 67.6044 70.7277 67.6061C70.0874 67.6079 69.474 67.8611 69.0225 68.31L61.6725 75.6266C60.9748 76.3207 60.1451 76.8713 59.2311 77.2468C58.3172 77.6223 57.3372 77.8153 56.3475 77.8145H46.6537C46.0142 77.8145 45.4009 78.0657 44.9487 78.5129C44.4965 78.9601 44.2425 79.5666 44.2425 80.1989C44.2425 80.8313 44.4965 81.4378 44.9487 81.885C45.4009 82.3322 46.0142 82.5834 46.6537 82.5834H57.0038C58.5133 82.5834 60.0073 82.283 61.397 81.7C62.7866 81.1171 64.0434 80.2636 65.0925 79.1903L72.3712 71.7514ZM56.3513 70.3941H46.65C44.0209 70.3941 41.4994 71.4269 39.6404 73.2653C37.7813 75.1038 36.7369 77.5972 36.7369 80.1971C36.7369 82.797 37.7813 85.2904 39.6404 87.1288C41.4994 88.9673 44.0209 90.0001 46.65 90.0001H57C59.5156 90.0005 62.0055 89.5004 64.3216 88.5295C66.6376 87.5586 68.7324 86.1367 70.4813 84.3486L77.7563 76.9059C79.6101 75.0628 80.6477 72.567 80.6406 69.9674C80.6336 67.3678 79.5826 64.8775 77.7188 63.0442C75.8549 61.2109 73.331 60.1849 70.7022 60.1919C68.0734 60.1988 65.5551 61.2382 63.7012 63.0813L56.3513 70.3941ZM122.775 49.201C124.028 49.236 125.275 49.0223 126.443 48.5723C127.611 48.1224 128.676 47.4454 129.575 46.5814C130.474 45.7174 131.188 44.6839 131.676 43.5421C132.164 42.4003 132.415 41.1734 132.415 39.9339C132.415 38.6943 132.164 37.4674 131.676 36.3256C131.188 35.1838 130.474 34.1503 129.575 33.2863C128.676 32.4223 127.611 31.7453 126.443 31.2954C125.275 30.8454 124.028 30.6317 122.775 30.6667C120.335 30.735 118.019 31.7413 116.318 33.4718C114.617 35.2022 113.665 37.5205 113.665 39.9339C113.665 42.3472 114.617 44.6655 116.318 46.396C118.019 48.1264 120.335 49.1327 122.775 49.201ZM139.65 39.9339C139.697 42.1544 139.296 44.362 138.469 46.4271C137.643 48.4923 136.408 50.3735 134.836 51.9605C133.265 53.5474 131.389 54.8083 129.319 55.669C127.248 56.5298 125.025 56.9731 122.779 56.9731C120.533 56.9731 118.309 56.5298 116.239 55.669C114.168 54.8083 112.293 53.5474 110.721 51.9605C109.15 50.3735 107.915 48.4923 107.088 46.4271C106.262 44.362 105.86 42.1544 105.908 39.9339C106.001 35.57 107.819 31.4158 110.973 28.3621C114.127 25.3083 118.365 23.5981 122.779 23.5981C127.193 23.5981 131.431 25.3083 134.585 28.3621C137.739 31.4158 139.557 35.57 139.65 39.9339ZM111.443 87.382L111.716 87.649C113.367 89.1843 115.564 90.0132 117.829 89.9556L117.975 89.9667C118.023 89.9757 118.072 89.9806 118.121 89.9815L129.885 89.9667C132.538 89.9642 135.08 88.9199 136.954 87.0634C138.828 85.2069 139.879 82.6903 139.877 80.0673C139.874 77.4443 138.818 74.9297 136.941 73.0766C135.064 71.2236 132.519 70.184 129.866 70.1864H122.531C121.781 70.1864 116.344 64.5238 112.294 60.1851C110.869 58.6522 109.139 57.4273 107.213 56.5874C105.287 55.7476 103.205 55.3109 101.1 55.3049H82.89L84.645 89.9778H96.2063C98.5466 89.9753 100.862 89.5074 103.016 88.602C105.169 87.6935 108.469 84.9716 108.739 84.7046C108.994 84.4524 111.191 87.0816 111.424 87.3597L111.443 87.382ZM100.073 81.7824L100.249 81.6897C100.891 81.3118 101.513 80.9008 102.112 80.4585C102.629 80.0786 103.134 79.6841 103.628 79.2756C106.178 76.9134 109.196 77.1878 110.378 77.4362C111.608 77.6958 112.481 78.2002 112.8 78.3893C113.34 78.7157 113.846 79.0933 114.311 79.5166C114.866 80.0098 115.399 80.5809 115.755 80.9703C116.153 81.4042 116.524 81.8306 116.786 82.1384L116.936 82.3164C117.014 82.3771 117.1 82.427 117.191 82.4647M100.073 81.7824C98.8463 82.2979 97.53 82.5575 96.1987 82.5649H91.7775L90.7763 62.7216H101.1C103.215 62.7216 105.281 63.6116 106.781 65.2173C108.825 67.4052 111.266 69.9788 113.321 72.0295C114.334 73.0419 115.339 74.0134 116.194 74.7699C116.606 75.1297 117.112 75.5635 117.649 75.9455C117.907 76.1309 118.327 76.4164 118.856 76.6909L118.879 76.702C119.186 76.8652 120.604 77.6031 122.531 77.6031H129.866C130.53 77.6021 131.166 77.8618 131.636 78.325C132.106 78.7881 132.37 79.4169 132.371 80.0729C132.372 80.7289 132.11 81.3584 131.641 81.823C131.173 82.2875 130.537 82.549 129.874 82.55L118.474 82.5612C118.259 82.5455 118.044 82.5381 117.829 82.5389H117.634C117.483 82.5446 117.332 82.5193 117.191 82.4647" fill="#00CC83"/>
</svg>
