<svg width="138" height="138" viewBox="0 0 138 138" fill="none" xmlns="http://www.w3.org/2000/svg">
<g clip-path="url(#clip0_16_517)">
<path d="M61.8574 126.747C61.4082 128.454 61.0713 130.184 60.8467 131.936C60.6221 133.688 60.4648 135.484 60.375 137.326C54.625 136.652 49.1445 135.305 43.9336 133.283C38.7227 131.262 33.8936 128.679 29.4463 125.534C24.999 122.39 20.9561 118.751 17.3174 114.618C13.6787 110.485 10.5791 105.993 8.01855 101.142C5.45801 96.29 3.48145 91.1689 2.08887 85.7783C0.696289 80.3877 0 74.7949 0 69C0 62.666 0.808594 56.5566 2.42578 50.6719C4.04297 44.7871 6.35645 39.2842 9.36621 34.1631C12.376 29.042 15.9697 24.3926 20.1475 20.2148C24.3252 16.0371 28.9971 12.4434 34.1631 9.43359C39.3291 6.42383 44.8096 4.11035 50.6045 2.49316C56.3994 0.875977 62.5312 0.0449219 69 0C75.334 0 81.4209 0.808594 87.2607 2.42578C93.1006 4.04297 98.6035 6.37891 103.77 9.43359C108.936 12.4883 113.585 16.082 117.718 20.2148C121.851 24.3477 125.467 29.0195 128.566 34.2305C131.666 39.4414 133.979 44.9219 135.507 50.6719C137.034 56.4219 137.865 62.5312 138 69H133.216C132.587 67.9668 131.936 66.9561 131.262 65.9678C130.588 64.9795 129.802 64.0361 128.903 63.1377C128.634 59.2295 127.938 55.4336 126.814 51.75H44.2705C43.9111 54.625 43.6416 57.4775 43.4619 60.3076C43.2822 63.1377 43.1699 66.0352 43.125 69C43.125 71.9199 43.2148 74.7949 43.3945 77.625C43.5742 80.4551 43.8662 83.3301 44.2705 86.25H69C69 87.6875 69.1123 89.125 69.3369 90.5625C69.5615 92 69.8535 93.4375 70.2129 94.875H45.7529C46.292 97.4355 47.0107 100.243 47.9092 103.298C48.8076 106.353 49.9307 109.34 51.2783 112.26C52.626 115.18 54.1758 117.92 55.9277 120.48C57.6797 123.041 59.6562 125.13 61.8574 126.747ZM123.513 43.125C121.761 39.4863 119.694 36.0723 117.313 32.8828C114.933 29.6934 112.237 26.7734 109.228 24.123C106.218 21.4727 103.028 19.1143 99.6592 17.0479C96.29 14.9814 92.6514 13.2969 88.7432 11.9941C90.3604 14.2402 91.7979 16.6211 93.0557 19.1367C94.3135 21.6523 95.459 24.2354 96.4922 26.8857C97.5254 29.5361 98.4014 32.2314 99.1201 34.9717C99.8389 37.7119 100.468 40.4297 101.007 43.125H123.513ZM69 8.625C66.7539 8.625 64.6875 9.23145 62.8008 10.4443C60.9141 11.6572 59.1621 13.252 57.5449 15.2285C55.9277 17.2051 54.4902 19.4287 53.2324 21.8994C51.9746 24.3701 50.8291 26.9082 49.7959 29.5137C48.7627 32.1191 47.9316 34.5898 47.3027 36.9258C46.6738 39.2617 46.1572 41.3281 45.7529 43.125H92.2471C91.8877 41.373 91.3711 39.3066 90.6973 36.9258C90.0234 34.5449 89.1924 32.0742 88.2041 29.5137C87.2158 26.9531 86.0928 24.4375 84.835 21.9668C83.5771 19.4961 82.1396 17.25 80.5225 15.2285C78.9053 13.207 77.1309 11.6123 75.1992 10.4443C73.2676 9.27637 71.2012 8.66992 69 8.625ZM49.3242 11.9268C45.5059 13.2295 41.8672 14.8916 38.4082 16.9131C34.9492 18.9346 31.7373 21.293 28.7725 23.9883C25.8076 26.6836 23.1123 29.626 20.6865 32.8154C18.2607 36.0049 16.1943 39.4414 14.4873 43.125H36.9932C37.4873 40.6543 38.0938 38.0264 38.8125 35.2412C39.5312 32.4561 40.4297 29.6709 41.5078 26.8857C42.5859 24.1006 43.7539 21.4277 45.0117 18.8672C46.2695 16.3066 47.707 13.9932 49.3242 11.9268ZM8.625 69C8.625 74.9746 9.45605 80.7246 11.1182 86.25H35.5781C35.2188 83.375 34.9492 80.5225 34.7695 77.6924C34.5898 74.8623 34.5 71.9648 34.5 69C34.5 66.0801 34.5898 63.2051 34.7695 60.375C34.9492 57.5449 35.2188 54.6699 35.5781 51.75H11.1182C9.45605 57.2754 8.625 63.0254 8.625 69ZM14.3525 94.875C16.1045 98.5137 18.1709 101.928 20.5518 105.117C22.9326 108.307 25.6279 111.249 28.6377 113.944C31.6475 116.64 34.8818 118.976 38.3408 120.952C41.7998 122.929 45.4385 124.613 49.2568 126.006C47.6396 123.76 46.2021 121.379 44.9443 118.863C43.6865 116.348 42.541 113.765 41.5078 111.114C40.4746 108.464 39.5986 105.769 38.8799 103.028C38.1611 100.288 37.5098 97.5703 36.9258 94.875H14.3525ZM118.729 107.071C121.648 108.554 124.299 110.373 126.68 112.529C129.061 114.686 131.082 117.111 132.744 119.807C134.406 122.502 135.709 125.377 136.652 128.432C137.596 131.486 138.045 134.676 138 138H129.375C129.375 134.451 128.701 131.104 127.354 127.96C126.006 124.815 124.164 122.075 121.828 119.739C119.492 117.403 116.729 115.539 113.54 114.146C110.351 112.754 107.004 112.08 103.5 112.125C99.9062 112.125 96.5596 112.799 93.46 114.146C90.3604 115.494 87.6201 117.336 85.2393 119.672C82.8584 122.008 80.9941 124.771 79.6465 127.96C78.2988 131.149 77.625 134.496 77.625 138H69C69 134.721 69.4492 131.554 70.3477 128.499C71.2461 125.444 72.5264 122.547 74.1885 119.807C75.8506 117.066 77.8721 114.641 80.2529 112.529C82.6338 110.418 85.2842 108.599 88.2041 107.071C84.835 104.646 82.2295 101.613 80.3877 97.9746C78.5459 94.3359 77.625 90.4277 77.625 86.25C77.625 82.7012 78.2988 79.3545 79.6465 76.21C80.9941 73.0654 82.8359 70.3252 85.1719 67.9893C87.5078 65.6533 90.248 63.7891 93.3926 62.3965C96.5371 61.0039 99.9062 60.3301 103.5 60.375C107.049 60.375 110.396 61.0488 113.54 62.3965C116.685 63.7441 119.425 65.5859 121.761 67.9219C124.097 70.2578 125.961 73.0205 127.354 76.21C128.746 79.3994 129.42 82.7461 129.375 86.25C129.375 90.3828 128.454 94.2686 126.612 97.9072C124.771 101.546 122.143 104.601 118.729 107.071ZM103.5 103.5C105.881 103.5 108.104 103.051 110.171 102.152C112.237 101.254 114.079 100.019 115.696 98.4463C117.313 96.874 118.549 95.0547 119.402 92.9883C120.256 90.9219 120.705 88.6758 120.75 86.25C120.75 83.8691 120.301 81.6455 119.402 79.5791C118.504 77.5127 117.269 75.6709 115.696 74.0537C114.124 72.4365 112.305 71.2012 110.238 70.3477C108.172 69.4941 105.926 69.0449 103.5 69C101.119 69 98.8955 69.4492 96.8291 70.3477C94.7627 71.2461 92.9209 72.4814 91.3037 74.0537C89.6865 75.626 88.4512 77.4453 87.5977 79.5117C86.7441 81.5781 86.2949 83.8242 86.25 86.25C86.25 88.6309 86.6992 90.8545 87.5977 92.9209C88.4961 94.9873 89.7314 96.8291 91.3037 98.4463C92.876 100.063 94.6953 101.299 96.7617 102.152C98.8281 103.006 101.074 103.455 103.5 103.5Z" fill="#262F71"/>
</g>
<defs>
<clipPath id="clip0_16_517">
<rect width="138" height="138" fill="white"/>
</clipPath>
</defs>
</svg>
