<svg width="146" height="146" viewBox="0 0 146 146" fill="none" xmlns="http://www.w3.org/2000/svg">
<path d="M42.5834 109.5V103.417C42.5834 95.3497 45.788 87.6131 51.4922 81.9088C57.1964 76.2046 64.933 73 73 73M73 73C81.067 73 88.8036 76.2046 94.5079 81.9088C100.212 87.6131 103.417 95.3497 103.417 103.417V109.5M73 73C77.8402 73 82.4822 71.0772 85.9047 67.6547C89.3273 64.2322 91.25 59.5902 91.25 54.75C91.25 49.9098 89.3273 45.2678 85.9047 41.8453C82.4822 38.4228 77.8402 36.5 73 36.5C68.1598 36.5 63.5179 38.4228 60.0953 41.8453C56.6728 45.2678 54.75 49.9098 54.75 54.75C54.75 59.5902 56.6728 64.2322 60.0953 67.6547C63.5179 71.0772 68.1598 73 73 73ZM6.08337 109.5V103.417C6.08337 98.5765 8.00614 93.9345 11.4287 90.512C14.8512 87.0894 19.4932 85.1667 24.3334 85.1667M24.3334 85.1667C27.5602 85.1667 30.6548 83.8848 32.9365 81.6031C35.2182 79.3214 36.5 76.2268 36.5 73C36.5 69.7732 35.2182 66.6786 32.9365 64.3969C30.6548 62.1152 27.5602 60.8333 24.3334 60.8333C21.1066 60.8333 18.0119 62.1152 15.7302 64.3969C13.4485 66.6786 12.1667 69.7732 12.1667 73C12.1667 76.2268 13.4485 79.3214 15.7302 81.6031C18.0119 83.8848 21.1066 85.1667 24.3334 85.1667ZM139.917 109.5V103.417C139.917 98.5765 137.994 93.9345 134.571 90.512C131.149 87.0894 126.507 85.1667 121.667 85.1667M121.667 85.1667C124.894 85.1667 127.988 83.8848 130.27 81.6031C132.552 79.3214 133.833 76.2268 133.833 73C133.833 69.7732 132.552 66.6786 130.27 64.3969C127.988 62.1152 124.894 60.8333 121.667 60.8333C118.44 60.8333 115.345 62.1152 113.064 64.3969C110.782 66.6786 109.5 69.7732 109.5 73C109.5 76.2268 110.782 79.3214 113.064 81.6031C115.345 83.8848 118.44 85.1667 121.667 85.1667Z" stroke="#08A8E7" stroke-width="9.125" stroke-linecap="round" stroke-linejoin="round"/>
</svg>
