<svg width="180" height="180" viewBox="0 0 180 180" fill="none" xmlns="http://www.w3.org/2000/svg">
<rect width="180" height="180" rx="10" fill="white"/>
<path d="M58.7499 102.5C56.0217 102.504 53.3272 103.103 50.8545 104.256C48.3819 105.409 46.1906 107.088 44.4336 109.175C42.6766 111.262 41.3963 113.708 40.682 116.341C39.9676 118.974 39.8365 121.731 40.2977 124.42C40.7589 127.109 41.8014 129.665 43.3524 131.909C44.9033 134.154 46.9254 136.033 49.2775 137.415C51.6296 138.797 54.255 139.65 56.9706 139.913C59.6861 140.176 62.4263 139.843 64.9999 138.937" stroke="#FF9494" stroke-width="9.375" stroke-linecap="round" stroke-linejoin="round"/>
<path d="M41.6498 112.531C37.9096 110.73 34.6766 108.027 32.2426 104.664C29.8087 101.301 28.2504 97.3857 27.7083 93.2701C27.1663 89.1545 27.6576 84.9688 29.1379 81.0906C30.6182 77.2124 33.0409 73.7638 36.1873 71.0561M36.3748 70.5499C34.3251 67.4827 33.4267 63.7892 33.8387 60.1232C34.2507 56.4572 35.9465 53.0553 38.6259 50.5196C41.3053 47.9838 44.7955 46.4779 48.4786 46.2684C52.1617 46.0589 55.8002 47.1594 58.7498 49.3749M60.2373 49.7811C59.2403 47.6627 58.7321 45.3472 58.7503 43.0059C58.7685 40.6646 59.3127 38.3573 60.3425 36.2546C61.3724 34.1519 62.8617 32.3076 64.7002 30.8578C66.5388 29.4081 68.6797 28.3901 70.9646 27.8791C73.2495 27.3681 75.6201 27.3771 77.9011 27.9055C80.182 28.4339 82.3151 29.4682 84.1426 30.9319C85.97 32.3955 87.4452 34.2512 88.459 36.3617C89.4729 38.4722 89.9994 40.7835 89.9998 43.1249V140C89.9998 143.315 88.6829 146.495 86.3387 148.839C83.9945 151.183 80.815 152.5 77.4998 152.5C74.1846 152.5 71.0052 151.183 68.661 148.839C66.3168 146.495 64.9998 143.315 64.9998 140M89.9998 58.7499C89.9998 63.7227 91.9753 68.4918 95.4916 72.0081C99.0079 75.5245 103.777 77.4999 108.75 77.4999M121.25 102.5C123.978 102.504 126.673 103.103 129.145 104.256C131.618 105.409 133.809 107.088 135.566 109.175C137.323 111.262 138.603 113.707 139.318 116.34C140.032 118.974 140.163 121.731 139.702 124.42C139.241 127.109 138.198 129.665 136.647 131.909C135.096 134.154 133.074 136.033 130.722 137.415C128.37 138.797 125.745 139.65 123.029 139.913C120.314 140.176 117.573 139.843 115 138.937" stroke="#FF9494" stroke-width="9.375" stroke-linecap="round" stroke-linejoin="round"/>
<path d="M138.35 112.531C142.09 110.73 145.323 108.027 147.757 104.664C150.191 101.301 151.749 97.3857 152.292 93.2701C152.834 89.1545 152.342 84.9688 150.862 81.0906C149.382 77.2124 146.959 73.7638 143.813 71.0561M143.625 70.5499C145.675 67.4827 146.573 63.7892 146.161 60.1232C145.749 56.4572 144.053 53.0553 141.374 50.5196C138.694 47.9838 135.204 46.4779 131.521 46.2684C127.838 46.0589 124.2 47.1594 121.25 49.3749M90 43.1249C90.0004 40.7835 90.527 38.4722 91.5408 36.3617C92.5546 34.2512 94.0298 32.3955 95.8573 30.9319C97.6847 29.4682 99.8178 28.4339 102.099 27.9055C104.38 27.3771 106.75 27.3681 109.035 27.8791C111.32 28.3901 113.461 29.4081 115.3 30.8578C117.138 32.3076 118.627 34.1519 119.657 36.2546C120.687 38.3573 121.231 40.6646 121.25 43.0059C121.268 45.3472 120.76 47.6627 119.762 49.7811M115 140C115 143.315 113.683 146.495 111.339 148.839C108.995 151.183 105.815 152.5 102.5 152.5C99.1848 152.5 96.0054 151.183 93.6612 148.839C91.317 146.495 90 143.315 90 140" stroke="#FF9494" stroke-width="9.375" stroke-linecap="round" stroke-linejoin="round"/>
</svg>
