<svg width="166" height="166" viewBox="0 0 166 166" fill="none" xmlns="http://www.w3.org/2000/svg">
<path d="M83 138.333C97.6754 138.333 111.75 132.504 122.127 122.126C132.504 111.749 138.333 97.6752 138.333 82.9999C138.333 68.3246 132.504 54.2504 122.127 43.8733C111.75 33.4963 97.6754 27.6666 83 27.6666C68.3247 27.6666 54.2505 33.4963 43.8735 43.8733C33.4965 54.2504 27.6667 68.3246 27.6667 82.9999C27.6667 97.6752 33.4965 111.749 43.8735 122.126C54.2505 132.504 68.3247 138.333 83 138.333ZM83 13.8333C92.0831 13.8333 101.077 15.6223 109.469 19.0983C117.861 22.5742 125.486 27.669 131.908 34.0917C138.331 40.5144 143.426 48.1393 146.902 56.531C150.378 64.9227 152.167 73.9168 152.167 82.9999C152.167 101.344 144.88 118.937 131.908 131.908C118.937 144.879 101.344 152.167 83 152.167C44.7509 152.167 13.8334 121.042 13.8334 82.9999C13.8334 64.6558 21.1206 47.063 34.0918 34.0917C47.0631 21.1204 64.6559 13.8333 83 13.8333ZM86.4584 48.4166V84.7291L117.583 103.197L112.396 111.704L76.0834 89.9166V48.4166H86.4584Z" fill="#FF9494"/>
</svg>
