<svg width="180" height="180" viewBox="0 0 180 180" fill="none" xmlns="http://www.w3.org/2000/svg">
<rect width="180" height="180" rx="10" fill="white"/>
<path d="M47 68.5C47 79.9043 51.5303 90.8415 59.5944 98.9056C67.6585 106.97 78.5957 111.5 90 111.5C101.404 111.5 112.342 106.97 120.406 98.9056C128.47 90.8415 133 79.9043 133 68.5C133 57.0957 128.47 46.1585 120.406 38.0944C112.342 30.0303 101.404 25.5 90 25.5C78.5957 25.5 67.6585 30.0303 59.5944 38.0944C51.5303 46.1585 47 57.0957 47 68.5Z" stroke="#262F71" stroke-width="14.3333" stroke-linecap="round" stroke-linejoin="round"/>
<path d="M90.0001 111.5L114.367 153.712L125.819 130.542L151.605 132.204L127.238 90M52.7478 90L28.3811 132.212L54.1668 130.542L65.6191 153.704L89.9858 111.5" stroke="#262F71" stroke-width="14.3333" stroke-linecap="round" stroke-linejoin="round"/>
</svg>
