<svg width="67" height="83" viewBox="0 0 67 83" fill="none" xmlns="http://www.w3.org/2000/svg">
<path d="M16.3328 41.1398C13.5069 42.2286 10.681 42.8818 8.07247 44.1883C3.72491 45.9304 2.63802 47.8902 3.29015 52.463C3.94229 57.6891 4.8118 62.6974 5.02918 68.359C4.8118 67.9235 4.8118 67.488 4.59442 67.0525C1.98588 62.4797 0.464236 57.6891 0.02948 52.2452C-0.187898 47.6724 0.681614 43.7528 6.55082 41.5753C5.24655 40.7043 4.59442 40.4865 4.15966 40.051C-0.405276 35.9137 -0.840032 28.5101 3.72491 24.155C5.68131 22.4129 8.07247 20.8887 10.4636 19.7999C15.0286 18.0579 18.5066 15.2271 20.6804 10.6542C23.7237 4.77488 28.9408 1.29081 35.4621 0.202044C42.2008 -1.10448 50.2438 4.12161 51.1133 10.2187C50.896 10.4365 50.4612 10.872 50.2438 11.0897C50.0264 10.4365 49.8091 9.56546 49.3743 8.9122C43.5051 1.94408 34.5926 2.16183 27.4191 5.64589C24.5932 6.95242 22.8542 9.34771 22.202 12.1785C20.6804 17.8401 16.7676 21.1064 11.5505 23.7195C8.07247 25.4615 4.59442 27.639 3.94229 31.9941C3.29015 35.2604 4.15966 37.8735 6.11607 40.2688C6.7682 40.922 8.28985 41.3575 9.37674 41.3575C11.7679 41.3575 13.9417 40.922 16.3328 40.7043C16.1155 40.7043 16.1155 40.922 16.3328 41.1398Z" fill="white"/>
<path d="M51.9826 56.3825C50.461 54.8582 48.9393 53.5517 47.4177 52.0274C45.0265 49.1966 42.2006 47.0191 38.5052 45.9303C36.9835 45.4948 35.4619 44.6238 33.9402 43.9706C31.1143 42.4463 30.2448 41.1397 31.3317 38.0912C31.9838 35.9137 31.5491 34.6071 30.0274 33.0829C28.2884 31.3408 27.2015 29.1633 28.2884 25.6792C29.5927 30.4698 33.0707 32.6473 35.8966 35.2604C36.5488 35.9137 38.0704 36.1314 38.7225 35.6959C41.9832 34.1716 44.8091 32.2118 44.5918 27.8568C44.5918 26.5502 45.6786 25.2437 46.3308 23.9372C46.9829 22.6307 47.8524 21.1064 48.2872 19.5821C43.5049 24.5904 37.2009 23.9372 31.5491 24.5904C29.5927 24.8082 27.4189 25.026 25.6799 25.6792C22.4192 26.768 19.8106 28.7278 20.2454 33.0829C18.5064 31.1231 18.5064 29.1633 20.028 26.9857C22.4192 23.2839 26.332 21.9774 30.4622 21.5419C33.0707 21.3241 35.4619 21.1064 38.0704 21.1064C42.6353 20.8886 46.7655 19.7999 48.9393 15.0093C50.2436 23.5017 46.9829 29.8165 41.7658 35.4781C38.0704 39.6155 37.6356 39.3977 33.0707 36.7847C31.7664 39.3977 32.2012 40.922 34.5924 42.0108C35.6792 42.4463 36.7661 43.0995 38.0704 43.3173C45.6786 44.6238 49.3741 50.0677 51.9826 56.3825Z" fill="white"/>
<path d="M51.9834 56.3826C55.6789 55.0761 59.1569 56.1649 62.4176 57.9069C65.4609 59.4312 66.5478 62.262 66.113 65.5283C65.6783 68.3591 64.374 70.5366 61.1133 71.1899C61.5481 70.5366 61.9828 69.8833 62.4176 69.2301C65.0261 65.3105 64.1566 60.7377 60.2438 58.3424C56.9831 56.1648 54.1572 56.8181 51.9834 59.8667C50.8966 61.1732 49.8097 62.262 48.288 63.7862C49.8097 64.6573 51.5487 65.5283 52.853 66.617C55.2441 68.1413 57.4179 69.6656 59.5917 71.4076C61.1133 72.7141 61.3307 74.2384 60.2438 75.9805C57.6353 79.6823 54.3746 82.2953 49.5923 82.5131C50.027 82.2953 50.4618 81.8598 50.8966 81.6421C51.9834 80.9888 53.2877 80.3355 54.3746 79.4645C58.7222 75.545 58.7222 74.2384 53.7225 71.1899C43.9405 65.3105 33.2889 61.8265 22.6374 57.6891C21.7679 57.4714 21.1158 57.0359 20.4636 56.1648C21.3331 56.3826 22.2026 56.3826 23.0722 56.6004C30.2456 58.5601 37.4191 60.5199 44.5926 62.6975C46.1142 63.133 47.2011 63.3507 48.288 61.8265C49.3749 59.8667 50.6792 58.1246 51.9834 56.3826Z" fill="white"/>
<path d="M10.464 60.3022C11.1161 66.3993 13.7247 71.8432 16.3332 77.287C13.0725 69.6656 11.7683 56.6004 13.7247 47.8902C13.9421 46.366 14.3768 45.0594 14.8116 43.5352C13.9421 43.9707 13.2899 44.6239 13.0725 45.2772C10.6814 50.0678 9.81187 55.0761 10.464 60.3022Z" fill="white"/>
<path d="M52.6347 11.9604C56.9823 14.138 58.0692 20.8884 54.8085 24.1547C53.7216 25.2434 52.6347 26.3322 51.7652 27.421C49.1567 30.6873 49.5915 32.8648 52.4174 35.6956C54.1564 37.4377 55.8954 38.9619 57.1997 40.704C58.9387 43.0993 59.8082 45.9301 58.9387 48.7609C58.7213 49.8496 58.0692 50.7207 57.1997 51.5917C57.6344 45.4946 53.7216 42.0105 50.461 38.3087C47.8524 35.4779 47.4177 32.4293 49.1567 28.9453C49.5915 28.0742 50.0262 27.2032 50.461 26.3322C53.0695 22.1949 54.8085 17.8398 52.6347 11.9604Z" fill="white"/>
</svg>
