<svg width="1366" height="768" viewBox="0 0 1366 768" fill="none" xmlns="http://www.w3.org/2000/svg">
<mask id="mask0_16_371" style="mask-type:alpha" maskUnits="userSpaceOnUse" x="0" y="0" width="1366" height="768">
<rect width="1366" height="768" fill="#D9D9D9"/>
</mask>
<g mask="url(#mask0_16_371)">
<path d="M469.562 743.162C191.809 736.803 31.304 555.053 -14.2293 464.973L-82.5293 75.5085V-345.749C115.73 -384.165 585.103 -460.999 876.517 -460.999C1239.61 -460.999 1492.43 -168.8 1575.79 -72.4595L1576.59 -71.5341C1659.12 23.8449 1590.82 683.55 1454.22 548.43C1317.62 413.309 816.754 751.11 469.562 743.162Z" fill="url(#paint0_linear_16_371)" fill-opacity="0.2"/>
<path d="M469.562 713.356C191.809 706.997 31.304 525.247 -14.2293 435.167L-82.5293 45.7023V-375.555C115.73 -413.972 585.103 -490.805 876.516 -490.805C1239.61 -490.805 1492.43 -198.606 1575.79 -102.266L1576.59 -101.34C1659.12 -5.9613 1590.82 653.744 1454.22 518.623C1317.62 383.503 816.754 721.304 469.562 713.356Z" fill="url(#paint1_linear_16_371)" fill-opacity="0.2"/>
</g>
<defs>
<linearGradient id="paint0_linear_16_371" x1="764.922" y1="-460.999" x2="764.922" y2="743.3" gradientUnits="userSpaceOnUse">
<stop stop-color="white" stop-opacity="0"/>
<stop offset="1" stop-color="#FF9494"/>
</linearGradient>
<linearGradient id="paint1_linear_16_371" x1="764.922" y1="-490.805" x2="764.922" y2="713.494" gradientUnits="userSpaceOnUse">
<stop stop-color="white" stop-opacity="0"/>
<stop offset="1" stop-color="#FF9494"/>
</linearGradient>
</defs>
</svg>
