<svg width="27" height="26" viewBox="0 0 27 26" fill="none" xmlns="http://www.w3.org/2000/svg">
<g clip-path="url(#clip0_99_672)">
<path d="M13.175 0C20.3551 0 26.1751 5.82075 26.1751 13C26.1751 20.1801 20.3551 26 13.175 26C5.9949 26 0.175049 20.1801 0.175049 13C0.175049 5.82075 5.99499 0 13.175 0Z" fill="#3B5998"/>
<path d="M14.7578 8.94961H16.4332V6.47473H14.4638V6.48366C12.0774 6.56818 11.5883 7.90959 11.5452 9.31848H11.5403V10.5543H9.91534V12.978H11.5403V19.4747H13.9892V12.978H15.9953L16.3828 10.5543H13.99V9.80766C13.99 9.33151 14.3069 8.94961 14.7578 8.94961Z" fill="white"/>
</g>
<defs>
<clipPath id="clip0_99_672">
<rect width="26" height="26" fill="white" transform="translate(0.175049)"/>
</clipPath>
</defs>
</svg>
