<svg width="23" height="22" viewBox="0 0 23 22" fill="none" xmlns="http://www.w3.org/2000/svg">
<g clip-path="url(#clip0_99_663)">
<path d="M21.3446 9.08747L12.371 9.08704C11.9748 9.08704 11.6536 9.40818 11.6536 9.80444V12.6711C11.6536 13.0673 11.9748 13.3885 12.371 13.3885H17.4244C16.871 14.8246 15.8382 16.0272 14.5205 16.7914L16.6753 20.5215C20.1318 18.5224 22.1753 15.0149 22.1753 11.0885C22.1753 10.5295 22.1341 10.1298 22.0517 9.67979C21.989 9.33789 21.6922 9.08747 21.3446 9.08747Z" fill="#167EE6"/>
<path d="M11.1752 17.6956C8.70219 17.6956 6.54327 16.3444 5.38375 14.345L1.65381 16.4949C3.55195 19.7846 7.10779 22 11.1752 22C13.1706 22 15.0533 21.4627 16.6752 20.5265V20.5214L14.5205 16.7913C13.5348 17.3629 12.3943 17.6956 11.1752 17.6956Z" fill="#12B347"/>
<path d="M16.675 20.5265V20.5214L14.5203 16.7913C13.5347 17.3629 12.3942 17.6956 11.175 17.6956V22C13.1704 22 15.0532 21.4627 16.675 20.5265Z" fill="#0F993E"/>
<path d="M4.4794 11C4.4794 9.78103 4.81206 8.6406 5.38359 7.65503L1.65365 5.50513C0.712244 7.12191 0.175049 8.99956 0.175049 11C0.175049 13.0005 0.712244 14.8781 1.65365 16.4949L5.38359 14.345C4.81206 13.3594 4.4794 12.219 4.4794 11Z" fill="#FFD500"/>
<path d="M11.1752 4.30435C12.7879 4.30435 14.2692 4.87738 15.4262 5.83056C15.7116 6.06568 16.1265 6.04871 16.388 5.78725L18.4191 3.75611C18.7158 3.45946 18.6946 2.97387 18.3777 2.69895C16.4392 1.0172 13.9169 0 11.1752 0C7.10779 0 3.55195 2.21534 1.65381 5.50511L5.38375 7.65501C6.54327 5.65555 8.70219 4.30435 11.1752 4.30435Z" fill="#FF4B26"/>
<path d="M15.426 5.83056C15.7115 6.06568 16.1264 6.04871 16.3878 5.78725L18.4189 3.75611C18.7156 3.45946 18.6944 2.97387 18.3776 2.69895C16.439 1.01716 13.9168 0 11.175 0V4.30435C12.7877 4.30435 14.269 4.87738 15.426 5.83056Z" fill="#D93F21"/>
</g>
<defs>
<clipPath id="clip0_99_663">
<rect width="22" height="22" fill="white" transform="translate(0.175049)"/>
</clipPath>
</defs>
</svg>
