<svg width="24" height="25" viewBox="0 0 24 25" fill="none" xmlns="http://www.w3.org/2000/svg">
<path fill-rule="evenodd" clip-rule="evenodd" d="M11.5397 22.6076C11.57 22.6251 11.5937 22.6386 11.6105 22.648L11.6384 22.6636C11.8613 22.786 12.1378 22.785 12.3608 22.664L12.3895 22.648C12.4063 22.6386 12.43 22.6251 12.4603 22.6076C12.5207 22.5726 12.607 22.5215 12.7155 22.4547C12.9325 22.3211 13.2388 22.1241 13.6046 21.8656C14.3351 21.3496 15.3097 20.584 16.2865 19.5839C18.2307 17.5934 20.25 14.6027 20.25 10.7565C20.25 6.20018 16.5563 2.50653 12 2.50653C7.44365 2.50653 3.75 6.20018 3.75 10.7565C3.75 14.6027 5.76932 17.5934 7.71346 19.5839C8.69025 20.584 9.66491 21.3496 10.3954 21.8656C10.7612 22.1241 11.0675 22.3211 11.2845 22.4547C11.393 22.5215 11.4793 22.5726 11.5397 22.6076ZM12 13.7565C13.6569 13.7565 15 12.4134 15 10.7565C15 9.09968 13.6569 7.75653 12 7.75653C10.3431 7.75653 9 9.09968 9 10.7565C9 12.4134 10.3431 13.7565 12 13.7565Z" fill="#CBEA7B"/>
</svg>
