<svg width="24" height="25" viewBox="0 0 24 25" fill="none" xmlns="http://www.w3.org/2000/svg">
<path fill-rule="evenodd" clip-rule="evenodd" d="M1.5 4.75653C1.5 3.09968 2.84315 1.75653 4.5 1.75653H5.87163C6.732 1.75653 7.48197 2.34209 7.69064 3.17678L8.79644 7.59996C8.97941 8.33183 8.70594 9.10208 8.10242 9.55471L6.8088 10.5249C6.67447 10.6257 6.64527 10.7732 6.683 10.8762C7.81851 13.976 10.2805 16.438 13.3803 17.5735C13.4833 17.6113 13.6309 17.5821 13.7316 17.4477L14.7018 16.1541C15.1545 15.5506 15.9247 15.2771 16.6566 15.4601L21.0798 16.5659C21.9144 16.7746 22.5 17.5245 22.5 18.3849V19.7565C22.5 21.4134 21.1569 22.7565 19.5 22.7565H17.25C8.55151 22.7565 1.5 15.705 1.5 7.00653V4.75653Z" fill="#CBEA7B"/>
</svg>
